<?xml version="1.0" encoding="UTF-8" standalone="no"?>
<!-- Created with Inkscape (http://www.inkscape.org/) -->

<svg
   width="300"
   height="300"
   viewBox="0 0 79.374998 79.375"
   version="1.1"
   id="svg1"
   xml:space="preserve"
   inkscape:version="1.4 (86a8ad7, 2024-10-11)"
   sodipodi:docname="user.svg"
   xmlns:inkscape="http://www.inkscape.org/namespaces/inkscape"
   xmlns:sodipodi="http://sodipodi.sourceforge.net/DTD/sodipodi-0.dtd"
   xmlns="http://www.w3.org/2000/svg"
   xmlns:svg="http://www.w3.org/2000/svg"><sodipodi:namedview
     id="namedview1"
     pagecolor="#ffffff"
     bordercolor="#000000"
     borderopacity="0.25"
     inkscape:showpageshadow="2"
     inkscape:pageopacity="0.0"
     inkscape:pagecheckerboard="0"
     inkscape:deskcolor="#d1d1d1"
     inkscape:document-units="mm"
     inkscape:zoom="1.3772587"
     inkscape:cx="120.89232"
     inkscape:cy="181.15696"
     inkscape:window-width="1920"
     inkscape:window-height="991"
     inkscape:window-x="-9"
     inkscape:window-y="-9"
     inkscape:window-maximized="1"
     inkscape:current-layer="layer1" /><defs
     id="defs1" /><g
     inkscape:label="Layer 1"
     inkscape:groupmode="layer"
     id="layer1"><path
       style="fill:#ffffff;stroke-width:0.146786"
       d="M 3.3341854,79.401209 C 2.7704169,79.299082 2.1556285,79.039263 1.6812045,78.702632 1.3340546,78.456309 0.80061798,77.875812 0.58346357,77.508044 0.20496298,76.867026 0.03420923,76.297198 0.00481231,75.576999 -0.02745135,74.786576 0.09155282,74.287495 0.69800251,72.669882 1.7658973,69.821438 3.1190819,67.465886 4.8655142,65.415299 c 0.5297353,-0.621992 1.6768423,-1.773115 2.2935162,-2.301546 1.2789492,-1.095936 3.0282076,-2.263358 4.4875456,-2.994902 4.596771,-2.30429 9.922085,-3.553155 17.707942,-4.152771 4.638475,-0.357223 12.050912,-0.431299 17.554436,-0.175428 1.811515,0.08422 4.156727,0.243096 5.145937,0.348606 3.347271,0.357025 5.302773,0.659557 7.650937,1.183659 6.27655,1.400909 10.99189,3.89039 14.308866,7.55442 0.904307,0.998926 1.396212,1.633324 2.12303,2.738027 1.190718,1.809795 2.161531,3.856619 2.932486,6.182744 0.371879,1.122031 0.401401,1.96386 0.09983,2.846915 -0.466414,1.365776 -1.470897,2.293291 -2.93777,2.712664 l -0.292477,0.08362 -36.157478,0.0063 C 9.5013733,79.452843 3.5776017,79.445312 3.3341854,79.401215 Z M 38.054062,47.6106 C 34.721265,47.352238 31.830072,46.560136 28.985564,45.126097 25.949053,43.595261 23.245771,41.41313 21.118924,38.776028 19.402274,36.647535 18.013206,34.129612 17.136099,31.556487 15.862118,27.819058 15.531559,23.84488 16.17092,19.95251 17.167074,13.888027 20.452622,8.4827023 25.412537,4.74837 29.479043,1.686688 34.516416,0.00171604 39.608215,1.5764071e-6 42.938523,-0.00117272 46.11724,0.65371061 49.219771,1.9800319 c 1.08857,0.4653585 2.675694,1.3378322 3.728376,2.0495586 4.419603,2.9881332 7.651701,7.2239625 9.339797,12.2402825 1.231958,3.660872 1.54375,7.701092 0.892761,11.568463 -0.656903,3.902506 -2.339195,7.676729 -4.803751,10.777216 -3.62984,4.566449 -8.707286,7.61743 -14.420414,8.665067 -0.693983,0.127258 -1.610546,0.243084 -2.487971,0.314402 -0.766399,0.06229 -2.698188,0.07111 -3.414507,0.01558 z"
       id="path1" /></g></svg>
